<mxfile host="app.diagrams.net" modified="2021-01-13T15:57:28.879Z" agent="5.0 (Windows NT 10.0; Win64; x64) AppleWebKit/537.36 (KHTML, like Gecko) Chrome/87.0.4280.141 Safari/537.36" etag="9_ztFLbv5g0DI8rGoZ_t" version="14.1.5" type="github">
  <diagram name="Page-1" id="9361dd3d-8414-5efd-6122-117bd74ce7a7">
    <mxGraphModel dx="1185" dy="662" grid="1" gridSize="10" guides="1" tooltips="1" connect="1" arrows="1" fold="1" page="0" pageScale="1.5" pageWidth="826" pageHeight="1169" background="#ffffff" math="0" shadow="0">
      <root>
        <mxCell id="0" />
        <mxCell id="1" parent="0" />
        <mxCell id="69" value="" style="fillColor=#DEE8FF;strokeColor=none" parent="1" vertex="1">
          <mxGeometry x="5.600000000000001" width="1570" height="800" as="geometry" />
        </mxCell>
        <mxCell id="20" value="" style="fillColor=#CCD5EB" parent="1" vertex="1">
          <mxGeometry x="140" y="640" width="1460" height="160" as="geometry" />
        </mxCell>
        <mxCell id="81" value="" style="edgeStyle=elbowEdgeStyle;elbow=horizontal;endArrow=none;dashed=1" parent="1" edge="1">
          <mxGeometry x="1460" y="437.8935185185186" width="100" height="100" as="geometry">
            <mxPoint x="1354.5" y="610" as="sourcePoint" />
            <mxPoint x="1354.5" y="770" as="targetPoint" />
          </mxGeometry>
        </mxCell>
        <mxCell id="2" value="" style="fillColor=#CC4125;strokeColor=#660000" parent="1" vertex="1">
          <mxGeometry x="200" y="170" width="10" height="110" as="geometry" />
        </mxCell>
        <mxCell id="4" value="&lt;&lt;java&gt;&gt;&#xa;:MprshopviewdetailsService" style="shadow=1;fillColor=#A2C4C9;strokeColor=none" parent="1" vertex="1">
          <mxGeometry x="110" y="60" width="197.5" height="40" as="geometry" />
        </mxCell>
        <mxCell id="6" value="" style="fillColor=#CC4125;strokeColor=#660000" parent="1" vertex="1">
          <mxGeometry x="447.5" y="160" width="10" height="350" as="geometry" />
        </mxCell>
        <mxCell id="7" value="&lt;&lt;java&gt;&gt;&#xa;:MprShopViewDetailsController" style="shadow=1;fillColor=#A2C4C9;strokeColor=none" parent="1" vertex="1">
          <mxGeometry x="352.5" y="60" width="200" height="40" as="geometry" />
        </mxCell>
        <mxCell id="8" value="" style="edgeStyle=none;endArrow=none;dashed=1" parent="1" source="7" target="6" edge="1">
          <mxGeometry x="272.3350694444445" y="165" width="100" height="100" as="geometry">
            <mxPoint x="347.2588734567901" y="110" as="sourcePoint" />
            <mxPoint x="347.5761959876544" y="165" as="targetPoint" />
          </mxGeometry>
        </mxCell>
        <mxCell id="9" value="getMprShopViewDetails()" style="edgeStyle=none;verticalLabelPosition=top;verticalAlign=bottom;entryX=-0.25;entryY=0.048;entryDx=0;entryDy=0;entryPerimeter=0;" parent="1" edge="1" target="6">
          <mxGeometry x="220" y="92" width="100" height="100" as="geometry">
            <mxPoint x="210" y="179.5" as="sourcePoint" />
            <mxPoint x="440" y="180" as="targetPoint" />
          </mxGeometry>
        </mxCell>
        <mxCell id="21" value="" style="fillColor=#CC4125;strokeColor=#660000" parent="1" vertex="1">
          <mxGeometry x="678.75" y="180" width="10" height="60" as="geometry" />
        </mxCell>
        <mxCell id="22" value="&lt;&lt;SOAP WS&gt;&gt;&#xa;:HeadcountRecordWS" style="shadow=1;fillColor=#A2C4C9;strokeColor=none" parent="1" vertex="1">
          <mxGeometry x="590" y="60" width="187.5" height="40" as="geometry" />
        </mxCell>
        <mxCell id="23" value="" style="edgeStyle=none;endArrow=none;dashed=1" parent="1" source="22" target="21" edge="1">
          <mxGeometry x="614.4878472222224" y="174.99999999999997" width="100" height="100" as="geometry">
            <mxPoint x="674.6527777777778" y="110" as="sourcePoint" />
            <mxPoint x="674.6527777777778" y="260" as="targetPoint" />
          </mxGeometry>
        </mxCell>
        <mxCell id="25" value="" style="edgeStyle=none;endArrow=none;dashed=1" parent="1" target="26" edge="1">
          <mxGeometry x="727.3350694444446" y="165" width="100" height="100" as="geometry">
            <mxPoint x="802.5" y="110" as="sourcePoint" />
            <mxPoint x="802.5761959876544" y="165" as="targetPoint" />
          </mxGeometry>
        </mxCell>
        <mxCell id="26" value="" style="fillColor=#CC4125;strokeColor=#660000" parent="1" vertex="1">
          <mxGeometry x="797.4999999999999" y="289.3942901234568" width="10" height="40" as="geometry" />
        </mxCell>
        <mxCell id="27" value="getCostCentreListMap()" style="edgeStyle=elbowEdgeStyle;elbow=vertical;verticalLabelPosition=top;verticalAlign=bottom;" parent="1" target="21" edge="1">
          <mxGeometry width="100" height="100" as="geometry">
            <mxPoint x="459" y="191" as="sourcePoint" />
            <mxPoint x="640" y="190" as="targetPoint" />
            <Array as="points">
              <mxPoint x="570" y="191" />
            </Array>
            <mxPoint x="-11" y="-1" as="offset" />
          </mxGeometry>
        </mxCell>
        <mxCell id="28" value="soap" style="edgeStyle=elbowEdgeStyle;elbow=vertical;dashed=1;verticalLabelPosition=bottom;verticalAlign=top;" parent="1" source="21" edge="1">
          <mxGeometry x="550" y="280" width="100" height="100" as="geometry">
            <mxPoint x="529.7839506172838" y="280" as="sourcePoint" />
            <mxPoint x="460" y="238" as="targetPoint" />
            <Array as="points" />
          </mxGeometry>
        </mxCell>
        <mxCell id="30" value="&lt;&lt;javascript&gt;&gt;&#xa;:GimqRequest&#xa;Batch" style="shadow=1;fillColor=#A2C4C9;strokeColor=none" parent="1" vertex="1">
          <mxGeometry x="952.5" y="60" width="105" height="50" as="geometry" />
        </mxCell>
        <mxCell id="33" value="" style="edgeStyle=elbowEdgeStyle;elbow=horizontal;endArrow=none;dashed=1" parent="1" source="4" target="2" edge="1">
          <mxGeometry x="230.00000000000003" y="310" width="100" height="100" as="geometry">
            <mxPoint x="230.00000000000003" y="410" as="sourcePoint" />
            <mxPoint x="330" y="310" as="targetPoint" />
          </mxGeometry>
        </mxCell>
        <mxCell id="38" value="" style="edgeStyle=elbowEdgeStyle;elbow=horizontal;endArrow=none;dashed=1" parent="1" edge="1">
          <mxGeometry x="932.2588734567901" y="240" width="100" height="100" as="geometry">
            <mxPoint x="802.2588734567901" y="329.3942901234568" as="sourcePoint" />
            <mxPoint x="802.2588734567901" y="370" as="targetPoint" />
            <Array as="points">
              <mxPoint x="802.2588734567901" y="350" />
            </Array>
          </mxGeometry>
        </mxCell>
        <mxCell id="39" value="" style="ellipse;fillColor=none" parent="1" vertex="1">
          <mxGeometry x="802.5000000000001" y="304.3942901234568" width="9.999999999999886" height="10" as="geometry" />
        </mxCell>
        <mxCell id="40" value=" - user&#xa; validation&#xa;&#xa; - password check" style="shape=note;align=left" parent="1" vertex="1">
          <mxGeometry x="829.9729938271605" y="180.17361111111111" width="120.02700617283949" height="109.82638888888889" as="geometry" />
        </mxCell>
        <mxCell id="41" value="" style="edgeStyle=none;endArrow=none;dashed=1" parent="1" source="40" target="39" edge="1">
          <mxGeometry x="1030" y="180" width="100" height="100" as="geometry">
            <mxPoint x="1030" y="280" as="sourcePoint" />
            <mxPoint x="1130" y="180" as="targetPoint" />
          </mxGeometry>
        </mxCell>
        <mxCell id="44" value="" style="edgeStyle=none;dashed=1;endArrow=none" parent="1" source="2" edge="1">
          <mxGeometry x="50" y="300" width="100" height="100" as="geometry">
            <mxPoint x="50" y="400" as="sourcePoint" />
            <mxPoint x="205" y="359.9999999999999" as="targetPoint" />
          </mxGeometry>
        </mxCell>
        <mxCell id="49" value="" style="fillColor=#CC4125;strokeColor=#660000" parent="1" vertex="1">
          <mxGeometry x="1000" y="468.3333333333333" width="10" height="81.66666666666669" as="geometry" />
        </mxCell>
        <mxCell id="50" value="" style="edgeStyle=none;endArrow=none;dashed=1" parent="1" source="30" target="49" edge="1">
          <mxGeometry x="956.5711805555559" y="205" width="100" height="100" as="geometry">
            <mxPoint x="1031.7361111111113" y="150" as="sourcePoint" />
            <mxPoint x="1031.7361111111113" y="329.3942901234568" as="targetPoint" />
          </mxGeometry>
        </mxCell>
        <mxCell id="55" value="&lt;&lt;javascript&gt;&gt;&#xa;:Proxy" style="shadow=1;fillColor=#A2C4C9;strokeColor=none" parent="1" vertex="1">
          <mxGeometry x="1090" y="462.08333333333337" width="105" height="50" as="geometry" />
        </mxCell>
        <mxCell id="56" value="" style="edgeStyle=none;endArrow=none;dashed=1" parent="1" source="55" target="57" edge="1">
          <mxGeometry x="1204.0711805555559" y="380.08680555555554" width="100" height="100" as="geometry">
            <mxPoint x="1279.2361111111113" y="325.08680555555554" as="sourcePoint" />
            <mxPoint x="1350" y="445.08680555555554" as="targetPoint" />
          </mxGeometry>
        </mxCell>
        <mxCell id="57" value="" style="fillColor=#CC4125;strokeColor=#660000" parent="1" vertex="1">
          <mxGeometry x="1137.5" y="530" width="10" height="90" as="geometry" />
        </mxCell>
        <mxCell id="58" value="" style="fillColor=#CC4125;strokeColor=#660000" parent="1" vertex="1">
          <mxGeometry x="1350" y="540" width="10" height="70" as="geometry" />
        </mxCell>
        <mxCell id="60" value="&lt;&lt;create&gt;&gt;" style="edgeStyle=elbowEdgeStyle;elbow=vertical;verticalLabelPosition=top;verticalAlign=bottom;dashed=1" parent="1" source="49" target="55" edge="1">
          <mxGeometry x="901.25" y="322.5" width="100" height="100" as="geometry">
            <mxPoint x="1031.25" y="351.8942901234568" as="sourcePoint" />
            <mxPoint x="1148.75" y="351.8942901234568" as="targetPoint" />
            <Array as="points" />
          </mxGeometry>
        </mxCell>
        <mxCell id="61" value="&lt;&lt;ajax&gt;&gt;" style="edgeStyle=elbowEdgeStyle;elbow=vertical;verticalLabelPosition=top;verticalAlign=bottom" parent="1" source="49" target="57" edge="1">
          <mxGeometry x="1065" y="359.5" width="100" height="100" as="geometry">
            <mxPoint x="1044.7839506172838" y="359.5" as="sourcePoint" />
            <mxPoint x="1195" y="359.5" as="targetPoint" />
            <Array as="points" />
          </mxGeometry>
        </mxCell>
        <mxCell id="62" value="postComments()" style="edgeStyle=elbowEdgeStyle;elbow=vertical;verticalLabelPosition=top;verticalAlign=bottom" parent="1" edge="1">
          <mxGeometry x="1225" y="309.5" width="100" height="100" as="geometry">
            <mxPoint x="1147.5" y="542.5" as="sourcePoint" />
            <mxPoint x="1350" y="542.5" as="targetPoint" />
            <Array as="points" />
          </mxGeometry>
        </mxCell>
        <mxCell id="63" value="&lt;&lt;json&gt;&gt;" style="edgeStyle=elbowEdgeStyle;elbow=vertical;dashed=1;verticalLabelPosition=bottom;verticalAlign=top" parent="1" edge="1">
          <mxGeometry x="1075" y="396" width="100" height="100" as="geometry">
            <mxPoint x="1350" y="606.5" as="sourcePoint" />
            <mxPoint x="1147.5" y="606.5" as="targetPoint" />
            <Array as="points" />
          </mxGeometry>
        </mxCell>
        <mxCell id="64" value="&lt;&lt;service&gt;&gt;&#xa;:GimqService" style="shadow=1;fillColor=#A2C4C9;strokeColor=none" parent="1" vertex="1">
          <mxGeometry x="1302.5" y="60" width="105" height="50" as="geometry" />
        </mxCell>
        <mxCell id="65" value="" style="edgeStyle=none;endArrow=none;dashed=1" parent="1" source="64" target="58" edge="1">
          <mxGeometry x="1174.0711805555559" y="210" width="100" height="100" as="geometry">
            <mxPoint x="1222.5" y="115" as="sourcePoint" />
            <mxPoint x="1222.5" y="445" as="targetPoint" />
          </mxGeometry>
        </mxCell>
        <mxCell id="66" value="" style="fillColor=#CC4125;strokeColor=#660000" parent="1" vertex="1">
          <mxGeometry x="200" y="600" width="10" height="130" as="geometry" />
        </mxCell>
        <mxCell id="68" value="&lt;&lt;callback&gt;&gt;" style="edgeStyle=elbowEdgeStyle;elbow=vertical;dashed=1;verticalLabelPosition=bottom;verticalAlign=bottom" parent="1" source="57" target="66" edge="1">
          <mxGeometry x="540" y="559.0779320987654" width="100" height="100" as="geometry">
            <mxPoint x="1010" y="551.7361111111111" as="sourcePoint" />
            <mxPoint x="362.49999999999994" y="551.7361111111111" as="targetPoint" />
            <Array as="points" />
          </mxGeometry>
        </mxCell>
        <mxCell id="71" value="A/R Calculation" style="rounded=1;fontStyle=1;fillColor=#FFD966;strokeColor=none" parent="1" vertex="1">
          <mxGeometry x="50" y="20" width="150" height="30" as="geometry" />
        </mxCell>
        <mxCell id="74" value="Handle errors from Gimq" style="fillColor=#BFC8DB" parent="1" vertex="1">
          <mxGeometry x="190" y="625" width="310" height="60.55555555555554" as="geometry" />
        </mxCell>
        <mxCell id="75" value="ref" style="rounded=1;fontStyle=1;fillColor=#FFD966;strokeColor=none" parent="1" vertex="1">
          <mxGeometry x="196.25" y="632.8935185185186" width="53.75" height="25" as="geometry" />
        </mxCell>
        <mxCell id="76" value="" style="align=left;fillColor=#BFC8DB" parent="1" vertex="1">
          <mxGeometry x="189.99999999999997" y="699.7222222222223" width="1201.1944444444443" height="60.55555555555554" as="geometry" />
        </mxCell>
        <mxCell id="77" value="ref" style="rounded=1;fontStyle=1;fillColor=#FFD966;strokeColor=none" parent="1" vertex="1">
          <mxGeometry x="196.24999999999997" y="707.6157407407409" width="53.75" height="25" as="geometry" />
        </mxCell>
        <mxCell id="78" value="Request all changes" style="text;align=left" parent="1" vertex="1">
          <mxGeometry x="268.05555555555554" y="720.1157407407408" width="351.80555555555554" height="26" as="geometry" />
        </mxCell>
        <mxCell id="84" value="" style="edgeStyle=elbowEdgeStyle;elbow=vertical;endArrow=none" parent="1" edge="1">
          <mxGeometry x="59.999999999999986" y="559.7106481481482" width="100" height="100" as="geometry">
            <mxPoint x="200" y="609.7106481481482" as="sourcePoint" />
            <mxPoint x="149.99999999999997" y="609.7106481481482" as="targetPoint" />
          </mxGeometry>
        </mxCell>
        <mxCell id="85" value="" style="edgeStyle=elbowEdgeStyle;elbow=vertical;endArrow=none" parent="1" edge="1">
          <mxGeometry x="49.99999999999999" y="649.4328703703704" width="100" height="100" as="geometry">
            <mxPoint x="190.00000000000003" y="699.4328703703704" as="sourcePoint" />
            <mxPoint x="140" y="699.4328703703704" as="targetPoint" />
          </mxGeometry>
        </mxCell>
        <mxCell id="86" value="" style="edgeStyle=elbowEdgeStyle;elbow=vertical;endArrow=none" parent="1" edge="1">
          <mxGeometry x="49.99999999999993" y="709.9884259259259" width="100" height="100" as="geometry">
            <mxPoint x="189.99999999999994" y="759.9884259259259" as="sourcePoint" />
            <mxPoint x="139.99999999999994" y="759.9884259259259" as="targetPoint" />
          </mxGeometry>
        </mxCell>
        <mxCell id="89" value="{10..50ms}" style="edgeStyle=elbowEdgeStyle;elbow=horizontal;startArrow=open;endArrow=open;labelPosition=left;align=right" parent="1" edge="1">
          <mxGeometry width="100" height="100" as="geometry">
            <mxPoint x="153.94675925925927" y="700.2777777777778" as="sourcePoint" />
            <mxPoint x="153.94675925925927" y="760.2777777777778" as="targetPoint" />
            <mxPoint x="-4.236111111111107" y="-0.2777777777777883" as="offset" />
          </mxGeometry>
        </mxCell>
        <mxCell id="mCs7bf0H3MKEqxOorgmJ-92" value="" style="curved=1;endArrow=classic;html=1;exitX=1.126;exitY=0.336;exitDx=0;exitDy=0;entryX=1;entryY=0.5;entryDx=0;entryDy=0;exitPerimeter=0;" edge="1" parent="1" source="6" target="6">
          <mxGeometry width="50" height="50" relative="1" as="geometry">
            <mxPoint x="740" y="410" as="sourcePoint" />
            <mxPoint x="790" y="360" as="targetPoint" />
            <Array as="points">
              <mxPoint x="510" y="275" />
              <mxPoint x="530" y="330" />
            </Array>
          </mxGeometry>
        </mxCell>
        <mxCell id="mCs7bf0H3MKEqxOorgmJ-93" value="totalAHC = totalCostCentreTM &lt;br&gt;&amp;nbsp; &amp;nbsp; &amp;nbsp; &amp;nbsp; &amp;nbsp; &amp;nbsp; &amp;nbsp; + totalCostCentreTL &lt;br&gt;&amp;nbsp; &amp;nbsp; &amp;nbsp; &amp;nbsp; &amp;nbsp; &amp;nbsp; &amp;nbsp; &amp;nbsp; &amp;nbsp; &amp;nbsp; &amp;nbsp; &amp;nbsp; &amp;nbsp; &amp;nbsp; &amp;nbsp; + totalAdditionalCostCentreTM" style="edgeLabel;html=1;align=center;verticalAlign=middle;resizable=0;points=[];" vertex="1" connectable="0" parent="mCs7bf0H3MKEqxOorgmJ-92">
          <mxGeometry x="-0.0352" y="-3" relative="1" as="geometry">
            <mxPoint x="110.17000000000002" y="39.18" as="offset" />
          </mxGeometry>
        </mxCell>
        <mxCell id="mCs7bf0H3MKEqxOorgmJ-94" value="" style="curved=1;endArrow=classic;html=1;entryX=1;entryY=0.75;entryDx=0;entryDy=0;exitX=1.362;exitY=0.599;exitDx=0;exitDy=0;exitPerimeter=0;" edge="1" parent="1" source="6" target="6">
          <mxGeometry width="50" height="50" relative="1" as="geometry">
            <mxPoint x="468.75999999999976" y="287.5999999999999" as="sourcePoint" />
            <mxPoint x="467.5" y="345.0000000000002" as="targetPoint" />
            <Array as="points">
              <mxPoint x="570" y="390" />
            </Array>
          </mxGeometry>
        </mxCell>
        <mxCell id="mCs7bf0H3MKEqxOorgmJ-95" value="&lt;div&gt;totalAHC = totalTMCount + totalCostCentreTL&lt;br&gt;&lt;/div&gt;&lt;div&gt;totalTMCount = totalCostCentreTM + totalAdditionalCostCentreTM&lt;/div&gt;" style="edgeLabel;html=1;align=center;verticalAlign=middle;resizable=0;points=[];" vertex="1" connectable="0" parent="mCs7bf0H3MKEqxOorgmJ-94">
          <mxGeometry x="-0.0352" y="-3" relative="1" as="geometry">
            <mxPoint x="81.3" y="37.19" as="offset" />
          </mxGeometry>
        </mxCell>
      </root>
    </mxGraphModel>
  </diagram>
</mxfile>
